<svg xmlns="http://www.w3.org/2000/svg" width="12" height="12" fill="none" viewBox="0 0 12 12"><path fill="#000" fill-rule="evenodd" d="M6.00001 1.33333C5.10555 1.33356 4.22999 1.59084 3.4776 2.07454C2.72521 2.55824 2.12767 3.24798 1.75615 4.06163C1.38462 4.87528 1.25475 5.77856 1.38201 6.66393C1.50926 7.54929 1.88828 8.37943 2.47393 9.0555C3.05958 9.73158 3.82718 10.2251 4.68535 10.4773C5.54352 10.7295 6.45609 10.7298 7.3144 10.4781C8.17272 10.2264 8.94062 9.73332 9.52667 9.05759C10.1127 8.38187 10.4922 7.55195 10.62 6.66667H6.66667C6.48986 6.66667 6.32029 6.59643 6.19527 6.4714C6.07024 6.34638 6.00001 6.17681 6.00001 6C6.00001 5.82319 6.07024 5.65362 6.19527 5.52859C6.32029 5.40357 6.48986 5.33333 6.66667 5.33333H11.3333C11.5102 5.33333 11.6797 5.40357 11.8047 5.52859C11.9298 5.65362 12 5.82319 12 6C11.9999 7.36094 11.5371 8.68139 10.6876 9.74463C9.83804 10.8079 8.65231 11.5507 7.32497 11.8513C5.99763 12.1518 4.60755 11.9921 3.38291 11.3985C2.15826 10.8049 1.1718 9.81259 0.585448 8.58445C-0.000903646 7.3563 -0.15231 5.9653 0.156081 4.63977C0.464472 3.31424 1.21434 2.13292 2.28259 1.28973C3.35085 0.446535 4.67403 -0.00843961 6.03494 -0.000516216C7.39585 0.00740718 8.71364 0.477758 9.77201 1.33333C9.90948 1.44455 9.99714 1.60582 10.0157 1.78166C10.0343 1.95751 9.98222 2.13353 9.87101 2.271C9.75979 2.40847 9.59852 2.49613 9.42268 2.5147C9.24683 2.53326 9.07081 2.48121 8.93334 2.37C8.10381 1.69751 7.06788 1.3314 6.00001 1.33333Z" clip-rule="evenodd"/></svg>