<svg xmlns="http://www.w3.org/2000/svg" width="12" height="12" fill="none" viewBox="0 0 12 12"><path fill="#fff" fill-rule="evenodd" d="M0 1.33333C0 0.596954 0.596954 0 1.33333 0H4C4.73638 0 5.33333 0.596954 5.33333 1.33333V4C5.33333 4.73638 4.73638 5.33333 4 5.33333H1.33333C0.596954 5.33333 0 4.73638 0 4V1.33333ZM4 1.33333H1.33333V4H4V1.33333Z" clip-rule="evenodd"/><path fill="#fff" fill-rule="evenodd" d="M0 8C0 7.26362 0.596954 6.66667 1.33333 6.66667H4C4.73638 6.66667 5.33333 7.26362 5.33333 8V10.6667C5.33333 11.403 4.73638 12 4 12H1.33333C0.596954 12 0 11.403 0 10.6667V8ZM4 8H1.33333V10.6667H4V8Z" clip-rule="evenodd"/><path fill="#fff" fill-rule="evenodd" d="M6.66667 1.33333C6.66667 0.596954 7.26362 0 8 0H10.6667C11.403 0 12 0.596954 12 1.33333V4C12 4.73638 11.403 5.33333 10.6667 5.33333H8C7.26362 5.33333 6.66667 4.73638 6.66667 4V1.33333ZM10.6667 1.33333H8V4H10.6667V1.33333Z" clip-rule="evenodd"/><path fill="#fff" fill-rule="evenodd" d="M6.66667 8C6.66667 7.26362 7.26362 6.66667 8 6.66667H10.6667C11.403 6.66667 12 7.26362 12 8V10.6667C12 11.403 11.403 12 10.6667 12H8C7.26362 12 6.66667 11.403 6.66667 10.6667V8ZM10.6667 8H8V10.6667H10.6667V8Z" clip-rule="evenodd"/></svg>